PathFileType	4	(X/Y/Z)	Walk3.trc
DataRate	CameraRate	NumFrames	NumMarkers	Units	OrigDataRate	OrigDataStartFrame	OrigNumFrames
200.000000	200.000000	7	59	mm	200.000000	417	578
Frame#	Times		CLAV		STRN		RASI		RACR1		RUA1		RElbow		RFA1		RWRU		LACR1		LUA1		LFA1		LCAR		RTH1		RTH3		RTH2		LTH3		LLFC		LTB1		LTB3		LTB4		LToe		LTH2		RFHD		LTH4		LFHD		LTB2		RBack		RTH4		LMT1		RCAR		RWRR		C7		RPSI		LMT5		LTH1		T10		LMMAL		RLFC		RTB1		LPSI		LLMAL		RBHD		LElbow		LBHD		RTB2		RTB4		RToe		RElbowM		LWRU		RTB3		LWRR		RMT1		RLMAL		RMMAL		LASI		RMT5		RCAL		LElbowM		LCAL
			X1	Y1	Z1	X2	Y2	Z2	X3	Y3	Z3	X4	Y4	Z4	X5	Y5	Z5	X6	Y6	Z6	X7	Y7	Z7	X8	Y8	Z8	X9	Y9	Z9	X10	Y10	Z10	X11	Y11	Z11	X12	Y12	Z12	X13	Y13	Z13	X14	Y14	Z14	X15	Y15	Z15	X16	Y16	Z16	X17	Y17	Z17	X18	Y18	Z18	X19	Y19	Z19	X20	Y20	Z20	X21	Y21	Z21	X22	Y22	Z22	X23	Y23	Z23	X24	Y24	Z24	X25	Y25	Z25	X26	Y26	Z26	X27	Y27	Z27	X28	Y28	Z28	X29	Y29	Z29	X30	Y30	Z30	X31	Y31	Z31	X32	Y32	Z32	X33	Y33	Z33	X34	Y34	Z34	X35	Y35	Z35	X36	Y36	Z36	X37	Y37	Z37	X38	Y38	Z38	X39	Y39	Z39	X40	Y40	Z40	X41	Y41	Z41	X42	Y42	Z42	X43	Y43	Z43	X44	Y44	Z44	X45	Y45	Z45	X46	Y46	Z46	X47	Y47	Z47	X48	Y48	Z48	X49	Y49	Z49	X50	Y50	Z50	X51	Y51	Z51	X52	Y52	Z52	X53	Y53	Z53	X54	Y54	Z54	X55	Y55	Z55	X56	Y56	Z56	X57	Y57	Z57	X58	Y58	Z58	X59	Y59	Z59

417	2.085	215.24	1343.9	31.294	288.93	1120.1	21.769	254.36	952.72	169.88	177.83	1350.4	207.84	161.04	1137.6	263.89	136.73	1031.4	285.73	203.33	892.81	284.16	180.06	782.8	298.92	141.8	1365.6	-131.32	129.97	1161	-189.53	207.49	934.38	-219.25	269.54	789.71	-223.27	177.54	750.44	215.28	204.23	567.87	170.27	256.13	677.77	166.95	226.49	561.32	-113.08	234.23	468.44	-102.94	208.86	368.17	-31.097	64.293	248.13	-31.393	135.53	306.42	-35.381	65.579	50.781	-66.758	266.15	669.55	-102.35	270.54	1584.7	81.837	195.75	645.27	-124.34	262.74	1584.2	9.2403	115.22	331.37	-100.4	54.916	1314.5	144.23	190.39	659.07	191.66	44.043	77.019	-38.453	228.69	745.54	292.72	228.43	791.58	243.12	91.455	1422.5	47.991	35.185	982.11	112.81	-4.0278	86.233	-98.422	164.98	737.06	-131.48	54.166	1139.1	44.399	-18.58	194.42	4.693	211.81	463.74	153.19	226.22	341.35	73.372	23.18	970.21	-1.4272	-46.224	197.85	-73.564	99.016	1552.8	121.48	122.98	1041.3	-211.65	91.497	1562	-6.1531	195.29	252.67	139.88	203.1	251.49	68.466	322.42	28.731	104.42	110.46	1012.5	205.68	210.77	813.72	-232.61	179.79	162.34	63.073	256.28	828.77	-179.17	279.29	38.71	69.635	122.34	61.828	109.15	142.57	76.627	31.25	227.53	942.51	-104.54	229.32	21.227	152.49	75.802	28.421	60.515	104.5	1021.1	-144.2	-97.71	207.92	-15.439
418	2.09	220.17	1344.6	31.5	293.77	1120.9	22.229	259.27	953.55	170.27	182.76	1351.3	208.05	166.62	1138.5	264.4	143.01	1032.2	286.35	210.91	894.16	284.22	188.81	783.91	298.71	146.71	1366.1	-131.15	134.1	1161.4	-189.07	209.83	934.24	-218.71	270.59	788.94	-222.76	182.3	750.83	215.27	206.93	568.02	170.25	259.88	677.37	166.66	233.93	563.02	-113.09	242.41	469.96	-102.78	218.78	369.27	-30.94	76.309	246.81	-30.866	146.5	306.28	-35.043	81.809	50.105	-66.162	272.68	671.59	-102.4	275.71	1585.3	81.994	202.51	646.71	-124.41	267.92	1584.8	9.4231	125.58	330.91	-99.987	59.87	1315.3	144.53	194.02	659.39	191.58	59.747	75.92	-37.846	237.89	747.25	292.36	236.96	793.34	242.83	96.42	1423.2	48.145	40.167	982.73	112.96	11.387	84.012	-97.717	170.9	738.24	-131.52	59.131	1139.7	44.784	-5.5853	191.62	5.3995	213.44	463.71	153.16	227.28	341.18	73.374	28.248	970.89	-1.2748	-33.348	194.5	-72.785	104.14	1553.5	121.61	126.19	1041.8	-211.1	96.669	1562.7	-6.0202	196	252.61	139.86	203.84	251.42	68.454	322.46	28.724	104.46	116.41	1013.2	206.55	212.06	813.54	-232.18	180.22	162.35	63.04	257.65	828.14	-178.67	279.3	38.706	69.68	122.44	62.017	109.08	142.72	76.764	31.201	232.94	943.4	-104.03	229.31	21.224	152.52	75.87	28.65	60.413	107.66	1021.8	-143.6	-85.142	203.38	-14.6
419	2.095	225.08	1345.2	31.69	298.61	1121.6	22.694	264.19	954.34	170.61	187.67	1352.2	208.24	172.18	1139.4	264.92	149.25	1032.9	286.96	218.45	895.52	284.27	197.53	785.02	298.47	151.61	1366.6	-131	138.22	1161.9	-188.61	212.14	934.07	-218.18	271.59	788.15	-222.27	187	751.18	215.25	209.61	568.15	170.21	263.6	676.96	166.39	241.29	564.68	-113.11	250.48	471.42	-102.61	228.65	370.31	-30.777	88.409	245.36	-30.357	157.49	306.05	-34.711	98.222	49.366	-65.604	279.12	673.59	-102.42	280.88	1585.8	82.131	209.22	648.11	-124.49	273.09	1585.3	9.5847	135.96	330.33	-99.577	64.815	1316	144.82	197.62	659.69	191.48	75.627	74.738	-37.285	247.05	748.97	291.97	245.46	795.11	242.52	101.37	1423.9	48.279	45.15	983.31	113.13	27.001	81.671	-97.054	176.77	739.39	-131.58	64.09	1140.3	45.154	7.5696	188.64	6.0774	215.08	463.69	153.14	228.36	341.01	73.371	33.298	971.52	-1.1169	-20.301	190.95	-72.035	109.27	1554.2	121.73	129.37	1042.3	-210.54	101.83	1563.4	-5.9016	196.72	252.55	139.84	204.58	251.35	68.44	322.5	28.716	104.49	122.39	1013.8	207.41	213.29	813.33	-231.75	180.65	162.36	63.006	258.99	827.5	-178.2	279.31	38.703	69.723	122.52	62.215	109	142.88	76.91	31.155	238.37	944.25	-103.49	229.3	21.222	152.54	75.939	28.885	60.319	110.8	1022.4	-142.98	-72.371	198.59	-13.791
420	2.1	229.98	1345.8	31.863	303.45	1122.2	23.161	269.11	955.09	170.92	192.58	1353.1	208.41	177.7	1140.3	265.42	155.46	1033.7	287.55	225.96	896.87	284.33	206.23	786.12	298.19	156.51	1367	-130.86	142.31	1162.2	-188.18	214.4	933.88	-217.67	272.54	787.34	-221.81	191.63	751.49	215.22	212.29	568.26	170.17	267.29	676.52	166.14	248.57	566.32	-113.13	258.44	472.82	-102.44	238.47	371.3	-30.609	100.59	243.78	-29.865	168.51	305.73	-34.384	114.81	48.578	-65.103	285.49	675.54	-102.41	286.05	1586.3	82.247	215.88	649.47	-124.59	278.26	1585.8	9.7243	146.36	329.62	-99.173	69.75	1316.7	145.1	201.19	659.95	191.35	91.676	73.483	-36.783	256.18	750.71	291.55	253.94	796.89	242.2	106.32	1424.5	48.394	50.133	983.85	113.29	42.806	79.23	-96.442	182.59	740.5	-131.67	69.042	1140.9	45.509	20.891	185.48	6.7256	216.74	463.66	153.11	229.46	340.84	73.363	38.332	972.12	-0.95298	-7.0819	187.21	-71.313	114.38	1554.9	121.83	132.51	1042.7	-209.99	106.98	1564.1	-5.7977	197.46	252.5	139.82	205.33	251.28	68.425	322.54	28.706	104.53	128.39	1014.4	208.25	214.49	813.1	-231.33	181.09	162.38	62.973	260.3	826.84	-177.75	279.32	38.7	69.764	122.61	62.42	108.93	143.05	77.065	31.112	243.81	945.04	-102.93	229.29	21.221	152.56	76.008	29.129	60.232	113.93	1023.1	-142.35	-59.387	193.57	-13.006
421	2.105	234.87	1346.3	32.021	308.28	1122.9	23.628	274.05	955.79	171.18	197.48	1353.9	208.57	183.21	1141.1	265.93	161.64	1034.4	288.13	233.42	898.2	284.37	214.89	787.21	297.87	161.4	1367.4	-130.73	146.38	1162.6	-187.76	216.63	933.66	-217.18	273.45	786.5	-221.36	196.19	751.75	215.19	214.96	568.34	170.11	270.96	676.06	165.91	255.76	567.91	-113.15	266.29	474.15	-102.27	248.22	372.24	-30.436	112.86	242.1	-29.391	179.55	305.32	-34.062	131.57	47.757	-64.678	291.77	677.43	-102.37	291.21	1586.7	82.34	222.49	650.8	-124.7	283.42	1586.2	9.8407	156.77	328.79	-98.773	74.674	1317.3	145.36	204.73	660.17	191.2	107.89	72.168	-36.354	265.27	752.44	291.11	262.39	798.67	241.86	111.25	1425.1	48.489	55.116	984.35	113.47	58.797	76.704	-95.89	188.38	741.57	-131.78	73.989	1141.4	45.849	34.385	182.17	7.3425	218.44	463.63	153.07	230.57	340.67	73.352	43.351	972.68	-0.78306	6.3113	183.31	-70.621	119.5	1555.5	121.92	135.63	1043.1	-209.43	112.13	1564.7	-5.7091	198.21	252.44	139.8	206.1	251.21	68.408	322.57	28.694	104.56	134.43	1015	209.07	215.64	812.85	-230.91	181.53	162.4	62.94	261.58	826.17	-177.33	279.33	38.698	69.802	122.69	62.633	108.86	143.22	77.231	31.072	249.25	945.78	-102.34	229.29	21.223	152.57	76.076	29.383	60.151	117.06	1023.7	-141.72	-46.182	188.33	-12.244
422	2.11	239.74	1346.8	32.164	313.12	1123.5	24.09	279	956.42	171.42	202.37	1354.6	208.71	188.69	1141.9	266.42	167.8	1035.1	288.69	240.85	899.51	284.41	223.51	788.3	297.52	166.27	1367.8	-130.63	150.42	1162.9	-187.36	218.82	933.4	-216.71	274.31	785.64	-220.94	200.66	751.96	215.15	217.64	568.41	170.05	274.6	675.59	165.71	262.86	569.46	-113.17	274.02	475.41	-102.09	257.92	373.13	-30.26	125.22	240.3	-28.935	190.62	304.83	-33.747	148.48	46.92	-64.346	297.97	679.27	-102.31	296.37	1587.1	82.41	229.05	652.08	-124.82	288.57	1586.6	9.9331	167.21	327.84	-98.378	79.586	1318	145.6	208.24	660.35	191.04	124.27	70.806	-36.009	274.33	754.18	290.65	270.81	800.45	241.5	116.17	1425.6	48.566	60.097	984.8	113.65	74.965	74.114	-95.409	194.12	742.6	-131.92	78.928	1141.9	46.175	48.057	178.7	7.9268	220.16	463.59	153.03	231.71	340.49	73.338	48.357	973.2	-0.60802	19.881	179.24	-69.957	124.61	1556.1	121.99	138.72	1043.5	-208.87	117.26	1565.3	-5.6364	198.97	252.39	139.78	206.89	251.14	68.391	322.61	28.679	104.59	140.51	1015.5	209.86	216.75	812.57	-230.5	181.99	162.42	62.909	262.84	825.47	-176.93	279.34	38.697	69.837	122.76	62.851	108.79	143.4	77.407	31.034	254.69	946.47	-101.75	229.28	21.225	152.59	76.144	29.649	60.074	120.19	1024.2	-141.08	-32.746	182.89	-11.503
423	2.115	244.61	1347.3	32.292	317.96	1124	24.546	283.95	957	171.63	207.25	1355.4	208.83	194.16	1142.7	266.9	173.94	1035.7	289.23	248.25	900.8	284.44	232.1	789.36	297.14	171.14	1368.1	-130.54	154.43	1163.1	-186.97	220.98	933.11	-216.25	275.13	784.76	-220.53	205.04	752.12	215.1	220.34	568.45	169.97	278.21	675.12	165.53	269.87	570.96	-113.2	281.63	476.6	-101.9	267.55	373.95	-30.08	137.67	238.4	-28.498	201.7	304.27	-33.439	165.55	46.084	-64.124	304.09	681.04	-102.23	301.52	1587.4	82.457	235.56	653.31	-124.95	293.71	1586.9	10.001	177.67	326.79	-97.988	84.484	1318.5	145.82	211.72	660.49	190.85	140.8	69.408	-35.759	283.34	755.9	290.17	279.2	802.22	241.14	121.08	1426.1	48.624	65.076	985.2	113.83	91.302	71.476	-95.007	199.83	743.59	-132.07	83.861	1142.3	46.486	61.912	175.1	8.477	221.92	463.54	153	232.87	340.31	73.321	53.351	973.68	-0.42942	33.628	175.04	-69.322	129.72	1556.7	122.05	141.79	1043.8	-208.31	122.38	1565.9	-5.5803	199.76	252.33	139.76	207.71	251.07	68.372	322.64	28.663	104.63	146.62	1016	210.62	217.82	812.26	-230.1	182.46	162.45	62.879	264.08	824.75	-176.55	279.36	38.697	69.871	122.84	63.076	108.73	143.59	77.593	30.998	260.12	947.1	-101.16	229.28	21.23	152.6	76.209	29.929	59.999	123.32	1024.8	-140.43	-19.072	177.27	-10.783
